<?xml version="1.0" encoding="utf-8"?>
<svg version="1.1" width="1582" height="1879" viewBox="0 0 1582 1879"
	xmlns="http://www.w3.org/2000/svg"
	xmlns:xlink="http://www.w3.org/1999/xlink"
	xml:space="preserve"
><style type="text/css">
	line{
		stroke: #000;
		stroke-width: 3;
		stroke-miterlimit: 10;
	}
	rect{
		stroke: #000;
		stroke-width: 3;
	}
	text{
		font-family: Helvetica, Arial, sans-serif;
		font-size: 53px;
		font-weight: bold;
		text-anchor: middle;
	}
	.index{
		fill: #737373;
		font-size: 50px;
		text-anchor: start;
		font-weight: normal;
	}
	.brace{
		fill: none;
		stroke: #000000;
		stroke-width: 5;
		stroke-linecap: round;
		stroke-linejoin: round;
		stroke-miterlimit: 10;
	}
	.frame{
		fill: none;
		stroke: #737373;
		stroke-width: 12;
		stroke-miterlimit: 10;
	}
</style>
<g id="available-stack-space">
	<g>
		<rect fill="#d6d6d6" x="506" y="1297" width="590" height="530"/>
		<line x1="506.5" y1="1355.5" x2="1096.5" y2="1355.5"/>
		<line x1="506.5" y1="1414.5" x2="1096.5" y2="1414.5"/>
		<line x1="506.5" y1="1473.5" x2="634.5"  y2="1473.5"/>
		<line x1="962"   y1="1473.5" x2="1096"   y2="1473.5"/>
		<line x1="506.5" y1="1532.5" x2="698.5"  y2="1532.5"/>
		<line x1="902"   y1="1532.5" x2="1096"   y2="1532.5"/>
		<line x1="506.5" y1="1591.5" x2="698.5"  y2="1591.5"/>
		<line x1="902"   y1="1591.5" x2="1096"   y2="1591.5"/>
		<line x1="506.5" y1="1650.5" x2="698.5"  y2="1650.5"/>
		<line x1="902"   y1="1650.5" x2="1096"   y2="1650.5"/>
		<line x1="506.5" y1="1709.5" x2="1096.5" y2="1709.5"/>
		<line x1="506.5" y1="1768.5" x2="1096.5" y2="1768.5"/>
		<text x="798.2334" y="1509" style="fill: #4b4b4b; font-size: 53px"><tspan x="798.2334" y="1509">AVAILABLE</tspan><tspan x="798.2334" y="1572.6">STACK</tspan><tspan x="798.2334" y="1636.2">SPACE</tspan></text>
	</g>
	<text x="1109.84" y="1342.6367" class="index">
		<tspan x="1109.84" y="1342.6367">8</tspan>
		<tspan x="1109.84" y="1401.6367">7</tspan>
		<tspan x="1109.84" y="1460.6367">6</tspan>
		<tspan x="1109.84" y="1519.6367">5</tspan>
		<tspan x="1109.84" y="1578.6367">4</tspan>
		<tspan x="1109.84" y="1637.6367">3</tspan>
		<tspan x="1109.84" y="1696.6367">2</tspan>
		<tspan x="1109.84" y="1755.6367">1</tspan>
		<tspan x="1109.84" y="1814.6367">0</tspan>
	</text>
</g>
<g id="n-1">
	<g>
		<rect fill="#d0cc35" x="506" y="588" width="590" height="59"/>
		<rect fill="#a1b595" x="506" y="647" width="590" height="58"/>
		<rect fill="#9ab2b8" x="506" y="705" width="590" height="118"/>
		<line x1="506" y1="764.5" x2="1096" y2="764.5"/>
		<rect x="506" y="588" width="590" height="235" class="frame"/>
		<text x="808" y="632.631" style="fill: #525252; font-size: 35px">RETURN LINK TO N-2</text>
		<text x="789" y="754" style="fill: #525252; font-size: 52px">DATA</text>
	</g>
	<text x="1109.84" y="633.4863" class="index">
		<tspan x="1109.84" y="633.4863">20</tspan>
		<tspan x="1109.84" y="693.4863">19</tspan>
		<tspan x="1109.84" y="753.4863">18</tspan>
		<tspan x="1109.84" y="813.4863">17</tspan>
	</text>
	<path class="brace" d="M476.5,588c-27,0-30.5,22.5-30.5,28.5v59c0,16-11.8039,28.6838-30.5,29c9.5559,0,17.7473,3.6348,23,9c5.1913,5.3024,7.5,12.2927,7.5,19.5v62c0,3.9928,1.4563,14.5941,9.5,22.5c4.1112,4.0408,11.9675,6,21,6"/>
	<text fill="#4b4b4b" x="214.369" y="694.5461" style="font-size: 35px; text-anchor: end"><tspan x="214.369" y="694.5461">INACTIVE</tspan><tspan x="214.369" y="736.5461">FRAME</tspan></text>
	<text fill="#4b4b4b" x="240.9487" y="735.5254" style="font-size: 92px; text-anchor: start">N-1</text>
</g>
<g id="n-2">
	<g>
		<rect fill="#d0cc35" x="506" y="292" width="590" height="59"/>
		<g>
			<rect x="506" y="351" width="590" height="237" fill="#b5a493"/>
			<line x1="876" y1="469.5" x2="1096" y2="469.5"/>
			<line x1="506" y1="469.5" x2="708"  y2="469.5"/>
			<line x1="506" y1="410.5" x2="1096" y2="410.5"/>
			<line x1="506" y1="528.5" x2="1096" y2="528.5"/>
		</g>
		<rect class="frame" x="506" y="292" width="590" height="296"/>
		<text x="808" y="340" style="fill: #525252; font-size: 35px">RETURN LINK TO N-3</text>
		<text x="789" y="488" style="fill: #525252; font-size: 52px">DATA</text>
	</g>
	<text x="1109.84" y="337.4863" class="index">
		<tspan x="1109.84" y="337.4863">25</tspan>
		<tspan x="1109.84" y="396.4863">24</tspan>
		<tspan x="1109.84" y="455.4863">23</tspan>
		<tspan x="1109.84" y="514.4863">22</tspan>
		<tspan x="1109.84" y="573.4863">21</tspan>
	</text>
	<path class="brace" d="M476.5,292c-27,0-30.5,22.5-30.5,28.5v90c0,16-11.8039,28.6838-30.5,29c9.5559,0,17.7473,3.6349,23,9c5.1913,5.3024,7.5,12.2927,7.5,19.5v91c0,3.9928,1.4563,14.5941,9.5,22.5c4.1112,4.0408,11.9675,6,21,6"/>
	<text fill="#4b4b4b" x="214.369" y="428.5461" style="font-size: 35px; text-anchor: end"><tspan x="214.369" y="428.5461">INACTIVE</tspan><tspan x="214.369" y="470.5461">FRAME</tspan></text>
	<text fill="#4b4b4b" x="240.9487" y="469.5254" style="font-size: 92px; text-anchor: start">N-2</text>
</g>
<g id="n-3">
	<g>
		<rect fill="#9cb6a6" x="506.5" y="115.5" width="590" height="59"/>
		<rect fill="#939cb7" x="506.5" y="174.5" width="590" height="59"/>
		<rect fill="#b096b1" x="506.5" y="233.5" width="590" height="58.5"/>
		<rect class="frame" x="506" y="115" width="590" height="177"/>
		<text x="789" y="225.1" style="fill: #525252; font-size: 52px">DATA</text>
	</g>
	<text x="1109.84" y="161.4863" class="index">
		<tspan x="1109.84" y="161.4863">28</tspan>
		<tspan x="1109.84" y="220.4863">27</tspan>
		<tspan x="1109.84" y="279.4863">26</tspan>
	</text>
	<path class="brace" d="M476.5,115c-27,0-30.5,22.5-30.5,28.5v31c0,16-11.8039,28.6838-30.5,29c9.5559,0,17.7473,3.6348,23,9c5.1913,5.3024,7.5,12.2927,7.5,19.5v31c0,3.9928,1.4563,14.5941,9.5,22.5c4.1112,4.0408,11.9675,6,21,6"/>
	<text fill="#4b4b4b" x="214.369" y="192.5461" style="font-size: 35px; text-anchor: end"><tspan x="214.369" y="192.5461">INACTIVE</tspan><tspan x="214.369" y="234.5461">FRAME</tspan></text>
	<text fill="#4b4b4b" x="240.949" y="233.5254" style="font-size: 92px; text-anchor: start">N-3</text>
</g>
<g id="active-frame">
	<g>
		<rect fill="#faf534" x="506" y="823"  width="590" height="59"/>
		<rect fill="#a688d1" x="506" y="882"  width="590" height="119"/>
		<rect fill="#e04154" x="506" y="1001" width="590" height="177"/>
		<rect fill="#68ce32" x="506" y="1178" width="590" height="119"/>
		<line x1="506" y1="941"    x2="1096" y2="941"/>
		<line x1="506" y1="1059.5" x2="700"  y2="1059.5"/>
		<line x1="880" y1="1059.5" x2="1096" y2="1059.5"/>
		<line x1="506" y1="1118.5" x2="1096" y2="1118.5"/>
		<line x1="506" y1="1238.5" x2="1096" y2="1238.5"/>
		<rect class="frame" x="506" y="823" width="590" height="474" style="stroke: #000"/>
		<text x="808" y="868.631" style="font-size: 35px">RETURN LINK TO N-1</text>
		<text x="789.2334" y="1076">DATA</text>
	</g>
	<text x="1109.84" y="869.6367" class="index" style="fill: #000">
		<tspan x="1109.84" y="869.6367">16</tspan>
		<tspan x="1109.84" y="928.6367">15</tspan>
		<tspan x="1109.84" y="987.6367">14</tspan>
		<tspan x="1109.84" y="1046.6367">13</tspan>
		<tspan x="1109.84" y="1105.6367">12</tspan>
		<tspan x="1109.84" y="1164.6367">11</tspan>
		<tspan x="1109.84" y="1223.6367">10</tspan>
		<tspan x="1109.84" y="1282.6367">9</tspan>
	</text>
	<text x="298.369" y="1044.5461" style="font-size: 50px; text-anchor: end"><tspan x="298.369" y="1044.5461">ACTIVE</tspan><tspan x="298.369" y="1104.5461">FRAME</tspan></text>
	<text x="319.949" y="1090.5254" style="font-size: 92px; text-anchor: start">N</text>
	<path class="brace" d="M477,824c-27,0-30.5,22.5-30.5,28.5v179c0,16-11.8039,28.6838-30.5,29c9.5559,0,17.7473,3.6349,23,9c5.1913,5.3024,7.5,12.2926,7.5,19.5v179c0,3.9928,1.4563,14.5941,9.5,22.5c4.1112,4.0408,11.9675,6,21,6"/>
</g>
<g class="pointer">
	<path d="M1168,115c17.9084-6.7643,31.3503-14.274,40.5-22.5L1205,103h67v24h-66.5l4,11.5C1197.6144,127.9178,1183.3154,120.7418,1168,115z"/>
	<text x="1299" y="97.81" style="font-size: 50px; text-anchor: start"><tspan x="1299" y="97.81">STACK</tspan><tspan x="1299" y="157.81">ORIGIN</tspan></text>
</g>
<g class="pointer">
	<path d="M1183.9999,1295.4044c17.9084-6.7643,31.3503-14.2739,40.5-22.5l-3.5,10.5H1288v24h-66.5001l4,11.5C1213.6143,1308.3223,1199.3153,1301.1462,1183.9999,1295.4044z"/>
	<text x="1419" y="1251.21" style="font-size: 50px"><tspan x="1419" y="1251.21">STACK</tspan><tspan x="1419" y="1311.21">POINTER</tspan><tspan x="1419" y="1371.21">= 9</tspan></text>
</g>
<text x="1438" y="1818.6221" style="font-size: 20.318px; font-weight: normal"><tspan x="1438" y="1818.6221">Agateller for Wikipedia</tspan><tspan x="1438" y="1843">Public Domain 2006</tspan>
</text>
</svg>
