<?xml version="1.0" encoding="UTF-8" standalone="no"?><!DOCTYPE svg PUBLIC "-//W3C//DTD SVG 1.1//EN" "http://www.w3.org/Graphics/SVG/1.1/DTD/svg11.dtd"><!-- Generated by graphviz version 2.40.1 (20161225.0304)
 --><!-- Title: G Pages: 1 --><svg xmlns="http://www.w3.org/2000/svg" xmlns:xlink="http://www.w3.org/1999/xlink" width="444pt" height="188pt" viewBox="0.00 0.00 444.49 188.00">
<g id="graph0" class="graph" transform="scale(1 1) rotate(0) translate(4 184)">
<title>G</title>
<polygon fill="#ffffff" stroke="transparent" points="-4,4 -4,-184 440.4916,-184 440.4916,4 -4,4"/>
<!-- main -->
<g id="node1" class="node">
<title>main</title>
<polygon fill="#add8e6" stroke="#add8e6" points="249.8261,-180 195.8261,-180 195.8261,-144 249.8261,-144 249.8261,-180"/>
<text text-anchor="middle" x="222.8261" y="-157.8" font-family="Times,serif" font-size="14.00" fill="#000000">main</text>
</g>
<!-- static_X -->
<g id="node2" class="node">
<title>static_X</title>
<polygon fill="#add8e6" stroke="#add8e6" points="74.9793,-108 12.6729,-108 12.6729,-72 74.9793,-72 74.9793,-108"/>
<text text-anchor="middle" x="43.8261" y="-85.8" font-family="Times,serif" font-size="14.00" fill="#000000">static_X</text>
</g>
<!-- main&#45;&gt;static_X -->
<g id="edge1" class="edge">
<title>main-&gt;static_X</title>
<path fill="none" stroke="#0000ff" d="M195.6399,-151.0647C166.1758,-139.2133 118.8247,-120.167 84.837,-106.496"/>
<polygon fill="#0000ff" stroke="#0000ff" points="85.7765,-103.1014 75.1927,-102.6167 83.1642,-109.5957 85.7765,-103.1014"/>
</g>
<!-- static_A -->
<g id="node3" class="node">
<title>static_A</title>
<polygon fill="#add8e6" stroke="#add8e6" points="161.9793,-108 99.6729,-108 99.6729,-72 161.9793,-72 161.9793,-108"/>
<text text-anchor="middle" x="130.8261" y="-85.8" font-family="Times,serif" font-size="14.00" fill="#000000">static_A</text>
</g>
<!-- main&#45;&gt;static_A -->
<g id="edge2" class="edge">
<title>main-&gt;static_A</title>
<path fill="none" stroke="#0000ff" d="M199.6106,-143.8314C188.2791,-134.9632 174.4797,-124.1637 162.2234,-114.5718"/>
<polygon fill="#0000ff" stroke="#0000ff" points="164.0663,-111.5697 154.0342,-108.1628 159.7521,-117.0822 164.0663,-111.5697"/>
</g>
<!-- dynalic_Y -->
<g id="node4" class="node">
<title>dynalic_Y</title>
<polygon fill="#add8e6" stroke="#add8e6" points="260.1438,-108 185.5084,-108 185.5084,-72 260.1438,-72 260.1438,-108"/>
<text text-anchor="middle" x="222.8261" y="-85.8" font-family="Times,serif" font-size="14.00" fill="#000000">dynalic_Y</text>
</g>
<!-- main&#45;&gt;dynalic_Y -->
<g id="edge3" class="edge">
<title>main-&gt;dynalic_Y</title>
<path fill="none" stroke="#0000ff" d="M222.8261,-143.8314C222.8261,-136.131 222.8261,-126.9743 222.8261,-118.4166"/>
<polygon fill="#0000ff" stroke="#0000ff" points="226.3262,-118.4132 222.8261,-108.4133 219.3262,-118.4133 226.3262,-118.4132"/>
</g>
<!-- dynalic_B -->
<g id="node5" class="node">
<title>dynalic_B</title>
<polygon fill="#add8e6" stroke="#add8e6" points="351.3745,-108 278.2777,-108 278.2777,-72 351.3745,-72 351.3745,-108"/>
<text text-anchor="middle" x="314.8261" y="-85.8" font-family="Times,serif" font-size="14.00" fill="#000000">dynalic_B</text>
</g>
<!-- main&#45;&gt;dynalic_B -->
<g id="edge4" class="edge">
<title>main-&gt;dynalic_B</title>
<path fill="none" stroke="#0000ff" d="M246.0416,-143.8314C257.3731,-134.9632 271.1725,-124.1637 283.4288,-114.5718"/>
<polygon fill="#0000ff" stroke="#0000ff" points="285.9001,-117.0822 291.618,-108.1628 281.5859,-111.5697 285.9001,-117.0822"/>
</g>
<!-- utils_cpp -->
<g id="node6" class="node">
<title>utils_cpp</title>
<polygon fill="#add8e6" stroke="#add8e6" points="436.6579,-108 368.9943,-108 368.9943,-72 436.6579,-72 436.6579,-108"/>
<text text-anchor="middle" x="402.8261" y="-85.8" font-family="Times,serif" font-size="14.00" fill="#000000">utils_cpp</text>
</g>
<!-- main&#45;&gt;utils_cpp -->
<g id="edge5" class="edge">
<title>main-&gt;utils_cpp</title>
<path fill="none" stroke="#0000ff" d="M249.8995,-151.6992C275.8908,-141.7462 316.4659,-126.0426 359.4444,-108.5182"/>
<polygon fill="#0000ff" stroke="#0000ff" points="361.0096,-111.6595 368.9391,-104.6328 358.3585,-105.181 361.0096,-111.6595"/>
</g>
<!-- static_X1 -->
<g id="node7" class="node">
<title>static_X1</title>
<polygon fill="#add8e6" stroke="#add8e6" points="69.4792,-36 .173,-36 .173,0 69.4792,0 69.4792,-36"/>
<text text-anchor="middle" x="34.8261" y="-13.8" font-family="Times,serif" font-size="14.00" fill="#000000">static_X1</text>
</g>
<!-- static_X&#45;&gt;static_X1 -->
<g id="edge6" class="edge">
<title>static_X-&gt;static_X1</title>
<path fill="none" stroke="#0000ff" d="M41.555,-71.8314C40.5925,-64.131 39.4479,-54.9743 38.3782,-46.4166"/>
<polygon fill="#0000ff" stroke="#0000ff" points="41.8412,-45.9019 37.1278,-36.4133 34.8952,-46.7702 41.8412,-45.9019"/>
</g>
<!-- dynalic_A1 -->
<g id="node8" class="node">
<title>dynalic_A1</title>
<polygon fill="#add8e6" stroke="#add8e6" points="168.6437,-36 87.0085,-36 87.0085,0 168.6437,0 168.6437,-36"/>
<text text-anchor="middle" x="127.8261" y="-13.8" font-family="Times,serif" font-size="14.00" fill="#000000">dynalic_A1</text>
</g>
<!-- static_A&#45;&gt;dynalic_A1 -->
<g id="edge7" class="edge">
<title>static_A-&gt;dynalic_A1</title>
<path fill="none" stroke="#0000ff" d="M130.0691,-71.8314C129.7482,-64.131 129.3667,-54.9743 129.0101,-46.4166"/>
<polygon fill="#0000ff" stroke="#0000ff" points="132.5067,-46.2589 128.5933,-36.4133 125.5128,-46.5503 132.5067,-46.2589"/>
</g>
<!-- dynalic_Y1 -->
<g id="node9" class="node">
<title>dynalic_Y1</title>
<polygon fill="#add8e6" stroke="#add8e6" points="267.6437,-36 186.0085,-36 186.0085,0 267.6437,0 267.6437,-36"/>
<text text-anchor="middle" x="226.8261" y="-13.8" font-family="Times,serif" font-size="14.00" fill="#000000">dynalic_Y1</text>
</g>
<!-- dynalic_Y&#45;&gt;dynalic_Y1 -->
<g id="edge8" class="edge">
<title>dynalic_Y-&gt;dynalic_Y1</title>
<path fill="none" stroke="#0000ff" d="M223.8355,-71.8314C224.2633,-64.131 224.772,-54.9743 225.2474,-46.4166"/>
<polygon fill="#0000ff" stroke="#0000ff" points="228.743,-46.592 225.8031,-36.4133 221.7537,-46.2037 228.743,-46.592"/>
</g>
<!-- static_B1 -->
<g id="node10" class="node">
<title>static_B1</title>
<polygon fill="#add8e6" stroke="#add8e6" points="354.2084,-36 285.4438,-36 285.4438,0 354.2084,0 354.2084,-36"/>
<text text-anchor="middle" x="319.8261" y="-13.8" font-family="Times,serif" font-size="14.00" fill="#000000">static_B1</text>
</g>
<!-- dynalic_B&#45;&gt;static_B1 -->
<g id="edge9" class="edge">
<title>dynalic_B-&gt;static_B1</title>
<path fill="none" stroke="#0000ff" d="M316.0878,-71.8314C316.6226,-64.131 317.2584,-54.9743 317.8527,-46.4166"/>
<polygon fill="#0000ff" stroke="#0000ff" points="321.3461,-46.6317 318.5474,-36.4133 314.3629,-46.1467 321.3461,-46.6317"/>
</g>
</g>
</svg>